<?xml version="1.0" encoding="UTF-8" standalone="no"?>
<!DOCTYPE svg PUBLIC "-//W3C//DTD SVG 1.1//EN" "http://www.w3.org/Graphics/SVG/1.1/DTD/svg11.dtd">
<svg xmlns="http://www.w3.org/2000/svg" version="1.1" viewBox="0 0 256 256">
<g stroke-width="2.00" fill="none" stroke-linecap="butt">
<path stroke="#7bb385" vector-effect="non-scaling-stroke" d="
  M 256.00 64.31
  L 240.56 63.93
  A 0.51 0.50 0.6 0 1 240.06 63.43
  L 240.00 48.78
  A 0.78 0.77 90.0 0 0 239.23 48.00
  L 224.00 48.00"
/>
<path stroke="#7bb385" vector-effect="non-scaling-stroke" d="
  M 224.00 48.00
  L 224.00 32.81
  A 0.81 0.81 45.0 0 0 223.19 32.00
  L 160.56 32.06
  A 0.51 0.50 0.6 0 0 160.05 32.55
  L 160.01 47.19
  A 0.81 0.80 90.0 0 1 159.21 48.00
  L 144.76 48.00
  A 0.76 0.76 -89.5 0 0 144.00 48.76
  L 144.00 63.19
  A 0.81 0.81 -45.0 0 1 143.19 64.00
  L 112.00 64.00"
/>
<path stroke="#7bb385" vector-effect="non-scaling-stroke" d="
  M 112.00 64.00
  L 112.00 48.77
  A 0.77 0.77 89.5 0 0 111.23 48.00
  L 96.00 48.00"
/>
<path stroke="#7bb385" vector-effect="non-scaling-stroke" d="
  M 96.00 48.00
  L 96.00 32.82
  A 0.82 0.82 89.6 0 0 95.18 32.00
  L 32.81 32.00
  A 0.81 0.81 -45.0 0 0 32.00 32.81
  L 32.00 47.19
  A 0.81 0.81 -90.0 0 1 31.19 48.00
  L 17.26 48.00
  A 1.26 1.26 1.8 0 0 16.00 49.26
  L 16.00 63.19
  A 0.86 0.83 -0.3 0 1 15.15 64.02
  L 0.00 64.19"
/>
<path stroke="#74ac21" vector-effect="non-scaling-stroke" d="
  M 96.00 48.00
  L 32.92 48.00
  A 0.92 0.92 45.0 0 0 32.00 48.92
  L 32.00 63.08
  A 0.92 0.92 45.0 0 1 31.08 64.00
  L 16.66 64.00
  A 0.66 0.66 2.3 0 0 16.00 64.66
  L 16.00 96.00"
/>
<path stroke="#7bb385" vector-effect="non-scaling-stroke" d="
  M 16.00 96.00
  L 0.00 95.69"
/>
<path stroke="#74ac21" vector-effect="non-scaling-stroke" d="
  M 224.00 48.00
  L 160.81 48.00
  A 0.81 0.81 -45.0 0 0 160.00 48.81
  L 160.00 63.08
  A 0.92 0.92 -89.4 0 1 159.08 64.00
  L 144.66 64.00
  A 0.66 0.66 -45.0 0 0 144.00 64.66
  L 144.00 95.34
  A 0.66 0.66 45.0 0 0 144.66 96.00
  L 160.00 96.00
  L 160.00 112.00"
/>
<path stroke="#7bb385" vector-effect="non-scaling-stroke" d="
  M 160.00 112.00
  L 144.78 112.00
  A 0.78 0.78 0.0 0 0 144.00 112.78
  L 144.00 207.96"
/>
<path stroke="#476323" vector-effect="non-scaling-stroke" d="
  M 144.00 207.96
  L 112.04 207.75"
/>
<path stroke="#7bb385" vector-effect="non-scaling-stroke" d="
  M 112.04 207.75
  L 112.00 112.77
  A 0.71 0.70 -90.0 0 0 111.30 112.06
  L 96.04 112.00"
/>
<path stroke="#74ac21" vector-effect="non-scaling-stroke" d="
  M 96.04 112.00
  L 95.94 96.56
  A 0.50 0.50 -45.0 0 0 95.44 96.06
  L 48.82 96.00
  A 0.82 0.82 0.8 0 1 48.00 95.18
  L 48.00 80.81
  A 0.81 0.81 -45.0 0 1 48.81 80.00
  L 94.74 80.00
  A 1.26 1.26 45.0 0 1 96.00 81.26
  L 96.00 95.22
  A 0.78 0.78 0.0 0 0 96.78 96.00
  L 111.18 96.00
  A 0.82 0.82 0.0 0 0 112.00 95.18
  L 112.00 64.00"
/>
<path stroke="#74ac21" vector-effect="non-scaling-stroke" d="
  M 96.00 48.00
  L 96.00 63.23
  A 0.77 0.77 89.5 0 0 96.77 64.00
  L 112.00 64.00"
/>
<path stroke="#abd58b" vector-effect="non-scaling-stroke" d="
  M 96.04 112.00
  L 95.96 112.25"
/>
<path stroke="#74ac21" vector-effect="non-scaling-stroke" d="
  M 95.96 112.25
  L 32.00 112.00"
/>
<path stroke="#74ac21" vector-effect="non-scaling-stroke" d="
  M 32.00 112.00
  L 32.00 96.92
  A 0.92 0.92 -45.0 0 0 31.08 96.00
  L 16.00 96.00"
/>
<path stroke="#74ac21" vector-effect="non-scaling-stroke" d="
  M 224.00 48.00
  L 224.00 63.22
  A 0.78 0.78 0.0 0 0 224.78 64.00
  L 238.76 64.00
  A 1.24 1.24 -0.9 0 1 240.00 65.24
  L 240.04 96.00"
/>
<path stroke="#abd58b" vector-effect="non-scaling-stroke" d="
  M 240.04 96.00
  L 239.96 96.25"
/>
<path stroke="#74ac21" vector-effect="non-scaling-stroke" d="
  M 239.96 96.25
  Q 232.32 95.69 224.68 96.16
  A 0.54 0.52 -1.8 0 0 224.17 96.68
  L 224.04 112.00"
/>
<path stroke="#abd58b" vector-effect="non-scaling-stroke" d="
  M 224.04 112.00
  L 223.96 112.25"
/>
<path stroke="#74ac21" vector-effect="non-scaling-stroke" d="
  M 223.96 112.25
  L 160.00 112.00"
/>
<path stroke="#74ac21" vector-effect="non-scaling-stroke" d="
  M 160.00 96.00
  L 207.19 96.00
  A 0.81 0.81 -45.0 0 0 208.00 95.19
  L 208.00 81.26
  A 1.26 1.26 89.6 0 0 206.74 80.00
  L 160.81 80.00
  A 0.81 0.81 -45.0 0 0 160.00 80.81
  L 160.00 96.00"
/>
<path stroke="#7bb385" vector-effect="non-scaling-stroke" d="
  M 256.00 95.81
  L 240.04 96.00"
/>
<path stroke="#7bb385" vector-effect="non-scaling-stroke" d="
  M 16.00 96.00
  L 16.00 111.23
  A 0.77 0.77 0.0 0 0 16.77 112.00
  L 32.00 112.00"
/>
<path stroke="#7bb385" vector-effect="non-scaling-stroke" d="
  M 32.00 112.00
  L 32.00 127.22
  A 0.78 0.78 0.0 0 0 32.78 128.00
  L 95.23 128.00
  A 0.76 0.75 -0.4 0 0 95.99 127.24
  L 95.96 112.25"
/>
<path stroke="#7e8c8d" vector-effect="non-scaling-stroke" d="
  M 112.04 207.75
  L 64.81 208.07
  A 0.54 0.50 0.5 0 0 64.27 208.56
  L 64.04 223.01
  A 1.00 0.95 -89.7 0 1 63.09 224.00
  L 0.00 223.94"
/>
<path stroke="#7e8c8d" vector-effect="non-scaling-stroke" d="
  M 256.00 224.06
  L 192.77 224.00
  A 0.77 0.76 -0.0 0 1 192.00 223.24
  L 192.00 208.82
  A 0.82 0.82 0.0 0 0 191.18 208.00
  L 144.00 207.96"
/>
<path stroke="#7bb385" vector-effect="non-scaling-stroke" d="
  M 160.00 112.00
  L 160.00 127.22
  A 0.78 0.78 0.0 0 0 160.78 128.00
  L 223.07 128.00
  A 0.93 0.93 0.0 0 0 224.00 127.07
  L 223.96 112.25"
/>
<path stroke="#7bb385" vector-effect="non-scaling-stroke" d="
  M 224.04 112.00
  L 239.07 112.00
  A 0.93 0.93 0.0 0 0 240.00 111.07
  L 239.96 96.25"
/>
</g>
<path fill="#b2dcef" d="
  M 0.00 0.00
  L 256.00 0.00
  L 256.00 64.31
  L 240.56 63.93
  A 0.51 0.50 0.6 0 1 240.06 63.43
  L 240.00 48.78
  A 0.78 0.77 90.0 0 0 239.23 48.00
  L 224.00 48.00
  L 224.00 32.81
  A 0.81 0.81 45.0 0 0 223.19 32.00
  L 160.56 32.06
  A 0.51 0.50 0.6 0 0 160.05 32.55
  L 160.01 47.19
  A 0.81 0.80 90.0 0 1 159.21 48.00
  L 144.76 48.00
  A 0.76 0.76 -89.5 0 0 144.00 48.76
  L 144.00 63.19
  A 0.81 0.81 -45.0 0 1 143.19 64.00
  L 112.00 64.00
  L 112.00 48.77
  A 0.77 0.77 89.5 0 0 111.23 48.00
  L 96.00 48.00
  L 96.00 32.82
  A 0.82 0.82 89.6 0 0 95.18 32.00
  L 32.81 32.00
  A 0.81 0.81 -45.0 0 0 32.00 32.81
  L 32.00 47.19
  A 0.81 0.81 -90.0 0 1 31.19 48.00
  L 17.26 48.00
  A 1.26 1.26 1.8 0 0 16.00 49.26
  L 16.00 63.19
  A 0.86 0.83 -0.3 0 1 15.15 64.02
  L 0.00 64.19
  L 0.00 0.00
  Z"
/>
<path fill="#44891a" d="
  M 96.00 48.00
  L 32.92 48.00
  A 0.92 0.92 45.0 0 0 32.00 48.92
  L 32.00 63.08
  A 0.92 0.92 45.0 0 1 31.08 64.00
  L 16.66 64.00
  A 0.66 0.66 2.3 0 0 16.00 64.66
  L 16.00 96.00
  L 0.00 95.69
  L 0.00 64.19
  L 15.15 64.02
  A 0.86 0.83 -0.3 0 0 16.00 63.19
  L 16.00 49.26
  A 1.26 1.26 3.6 0 1 17.26 48.00
  L 31.19 48.00
  A 0.81 0.81 90.0 0 0 32.00 47.19
  L 32.00 32.81
  A 0.81 0.81 -45.0 0 1 32.81 32.00
  L 95.18 32.00
  A 0.82 0.82 89.2 0 1 96.00 32.82
  L 96.00 48.00
  Z"
/>
<path fill="#44891a" d="
  M 224.00 48.00
  L 160.81 48.00
  A 0.81 0.81 -45.0 0 0 160.00 48.81
  L 160.00 63.08
  A 0.92 0.92 -89.4 0 1 159.08 64.00
  L 144.66 64.00
  A 0.66 0.66 -45.0 0 0 144.00 64.66
  L 144.00 95.34
  A 0.66 0.66 45.0 0 0 144.66 96.00
  L 160.00 96.00
  L 160.00 112.00
  L 144.78 112.00
  A 0.78 0.78 0.0 0 0 144.00 112.78
  L 144.00 207.96
  L 112.04 207.75
  L 112.00 112.77
  A 0.71 0.70 -90.0 0 0 111.30 112.06
  L 96.04 112.00
  L 95.94 96.56
  A 0.50 0.50 -45.0 0 0 95.44 96.06
  L 48.82 96.00
  A 0.82 0.82 0.8 0 1 48.00 95.18
  L 48.00 80.81
  A 0.81 0.81 -45.0 0 1 48.81 80.00
  L 94.74 80.00
  A 1.26 1.26 45.0 0 1 96.00 81.26
  L 96.00 95.22
  A 0.78 0.78 0.0 0 0 96.78 96.00
  L 111.18 96.00
  A 0.82 0.82 0.0 0 0 112.00 95.18
  L 112.00 64.00
  L 143.19 64.00
  A 0.81 0.81 -45.0 0 0 144.00 63.19
  L 144.00 48.76
  A 0.76 0.76 88.5 0 1 144.76 48.00
  L 159.21 48.00
  A 0.81 0.80 90.0 0 0 160.01 47.19
  L 160.05 32.55
  A 0.51 0.50 0.6 0 1 160.56 32.06
  L 223.19 32.00
  A 0.81 0.81 45.0 0 1 224.00 32.81
  L 224.00 48.00
  Z"
/>
<path fill="#a3ce27" d="
  M 96.00 48.00
  L 96.00 63.23
  A 0.77 0.77 89.5 0 0 96.77 64.00
  L 112.00 64.00
  L 112.00 95.18
  A 0.82 0.82 -0.0 0 1 111.18 96.00
  L 96.78 96.00
  A 0.78 0.78 -0.0 0 1 96.00 95.22
  L 96.00 81.26
  A 1.26 1.26 45.0 0 0 94.74 80.00
  L 48.81 80.00
  A 0.81 0.81 -45.0 0 0 48.00 80.81
  L 48.00 95.18
  A 0.82 0.82 0.4 0 0 48.82 96.00
  L 95.44 96.06
  A 0.50 0.50 45.0 0 1 95.94 96.56
  L 96.04 112.00
  L 95.96 112.25
  L 32.00 112.00
  L 32.00 96.92
  A 0.92 0.92 -45.0 0 0 31.08 96.00
  L 16.00 96.00
  L 16.00 64.66
  A 0.66 0.66 3.8 0 1 16.66 64.00
  L 31.08 64.00
  A 0.92 0.92 45.0 0 0 32.00 63.08
  L 32.00 48.92
  A 0.92 0.92 45.0 0 1 32.92 48.00
  L 96.00 48.00
  Z"
/>
<path fill="#44891a" d="
  M 96.00 48.00
  L 111.23 48.00
  A 0.77 0.77 89.5 0 1 112.00 48.77
  L 112.00 64.00
  L 96.77 64.00
  A 0.77 0.77 89.5 0 1 96.00 63.23
  L 96.00 48.00
  Z"
/>
<path fill="#a3ce27" d="
  M 224.00 48.00
  L 224.00 63.22
  A 0.78 0.78 0.0 0 0 224.78 64.00
  L 238.76 64.00
  A 1.24 1.24 -0.9 0 1 240.00 65.24
  L 240.04 96.00
  L 239.96 96.25
  Q 232.32 95.69 224.68 96.16
  A 0.54 0.52 -1.8 0 0 224.17 96.68
  L 224.04 112.00
  L 223.96 112.25
  L 160.00 112.00
  L 160.00 96.00
  L 207.19 96.00
  A 0.81 0.81 -45.0 0 0 208.00 95.19
  L 208.00 81.26
  A 1.26 1.26 89.6 0 0 206.74 80.00
  L 160.81 80.00
  A 0.81 0.81 -45.0 0 0 160.00 80.81
  L 160.00 96.00
  L 144.66 96.00
  A 0.66 0.66 45.0 0 1 144.00 95.34
  L 144.00 64.66
  A 0.66 0.66 -45.0 0 1 144.66 64.00
  L 159.08 64.00
  A 0.92 0.92 89.7 0 0 160.00 63.08
  L 160.00 48.81
  A 0.81 0.81 -45.0 0 1 160.81 48.00
  L 224.00 48.00
  Z"
/>
<path fill="#44891a" d="
  M 224.00 48.00
  L 239.23 48.00
  A 0.78 0.77 -90.0 0 1 240.00 48.78
  L 240.06 63.43
  A 0.51 0.50 0.6 0 0 240.56 63.93
  L 256.00 64.31
  L 256.00 95.81
  L 240.04 96.00
  L 240.00 65.24
  A 1.24 1.24 0.0 0 0 238.76 64.00
  L 224.78 64.00
  A 0.78 0.78 -0.0 0 1 224.00 63.22
  L 224.00 48.00
  Z"
/>
<path fill="#44891a" d="
  M 160.00 96.00
  L 160.00 80.81
  A 0.81 0.81 -45.0 0 1 160.81 80.00
  L 206.74 80.00
  A 1.26 1.26 -89.6 0 1 208.00 81.26
  L 208.00 95.19
  A 0.81 0.81 -45.0 0 1 207.19 96.00
  L 160.00 96.00
  Z"
/>
<path fill="#b2dcef" d="
  M 0.00 95.69
  L 16.00 96.00
  L 16.00 111.23
  A 0.77 0.77 0.0 0 0 16.77 112.00
  L 32.00 112.00
  L 32.00 127.22
  A 0.78 0.78 0.0 0 0 32.78 128.00
  L 95.23 128.00
  A 0.76 0.75 -0.4 0 0 95.99 127.24
  L 95.96 112.25
  L 96.04 112.00
  L 111.30 112.06
  A 0.71 0.70 90.0 0 1 112.00 112.77
  L 112.04 207.75
  L 64.81 208.07
  A 0.54 0.50 0.5 0 0 64.27 208.56
  L 64.04 223.01
  A 1.00 0.95 -89.7 0 1 63.09 224.00
  L 0.00 223.94
  L 0.00 95.69
  Z"
/>
<path fill="#b2dcef" d="
  M 256.00 95.81
  L 256.00 224.06
  L 192.77 224.00
  A 0.77 0.76 -0.0 0 1 192.00 223.24
  L 192.00 208.82
  A 0.82 0.82 0.0 0 0 191.18 208.00
  L 144.00 207.96
  L 144.00 112.78
  A 0.78 0.78 -0.0 0 1 144.78 112.00
  L 160.00 112.00
  L 160.00 127.22
  A 0.78 0.78 0.0 0 0 160.78 128.00
  L 223.07 128.00
  A 0.93 0.93 0.0 0 0 224.00 127.07
  L 223.96 112.25
  L 224.04 112.00
  L 239.07 112.00
  A 0.93 0.93 0.0 0 0 240.00 111.07
  L 239.96 96.25
  L 240.04 96.00
  L 256.00 95.81
  Z"
/>
<path fill="#44891a" d="
  M 16.00 96.00
  L 31.08 96.00
  A 0.92 0.92 -45.0 0 1 32.00 96.92
  L 32.00 112.00
  L 16.77 112.00
  A 0.77 0.77 3.9 0 1 16.00 111.23
  L 16.00 96.00
  Z"
/>
<path fill="#44891a" d="
  M 239.96 96.25
  L 240.00 111.07
  A 0.93 0.93 45.0 0 1 239.07 112.00
  L 224.04 112.00
  L 224.17 96.68
  A 0.54 0.52 -1.8 0 1 224.68 96.16
  Q 232.32 95.69 239.96 96.25
  Z"
/>
<path fill="#44891a" d="
  M 32.00 112.00
  L 95.96 112.25
  L 95.99 127.24
  A 0.76 0.75 -0.4 0 1 95.23 128.00
  L 32.78 128.00
  A 0.78 0.78 -0.0 0 1 32.00 127.22
  L 32.00 112.00
  Z"
/>
<path fill="#44891a" d="
  M 160.00 112.00
  L 223.96 112.25
  L 224.00 127.07
  A 0.93 0.93 45.0 0 1 223.07 128.00
  L 160.78 128.00
  A 0.78 0.78 -0.0 0 1 160.00 127.22
  L 160.00 112.00
  Z"
/>
<path fill="#493c2b" d="
  M 112.04 207.75
  L 144.00 207.96
  L 191.18 208.00
  A 0.82 0.82 -0.0 0 1 192.00 208.82
  L 192.00 223.24
  A 0.77 0.76 0.0 0 0 192.77 224.00
  L 256.00 224.06
  L 256.00 256.00
  L 0.00 256.00
  L 0.00 223.94
  L 63.09 224.00
  A 1.00 0.95 -89.7 0 0 64.04 223.01
  L 64.27 208.56
  A 0.54 0.50 0.5 0 1 64.81 208.07
  L 112.04 207.75
  Z"
/>
</svg>
